HIERARCHY
ROOT Hips
{
    OFFSET   0.000000   0.000000   0.000000
    CHANNELS 6 Xposition Yposition Zposition Zrotation Xrotation Yrotation
    JOINT Chest
    {
        OFFSET   0.000000   8.007230   0.000000
        CHANNELS 3 Zrotation Xrotation Yrotation
        JOINT Chest2
        {
            OFFSET   0.000000  22.077100   0.000000
            CHANNELS 3 Zrotation Xrotation Yrotation
            JOINT Neck
            {
                OFFSET   0.000000  23.254700   0.000000
                CHANNELS 3 Zrotation Xrotation Yrotation
                JOINT Head
                {
                    OFFSET   0.000010  14.370000   1.956610
                    CHANNELS 3 Zrotation Xrotation Yrotation
                    End Site
                    {
                        OFFSET   0.000000  19.566000   0.000000
                    }
                }
            }
            JOINT LeftCollar
            {
                OFFSET   3.911900  19.017000  -0.467063
                CHANNELS 3 Zrotation Xrotation Yrotation
                JOINT LeftShoulder
                {
                    OFFSET  10.383700   0.000000   0.000000
                    CHANNELS 3 Zrotation Xrotation Yrotation
                    JOINT LeftElbow
                    {
                        OFFSET  26.662100   0.001671   0.000522
                        CHANNELS 3 Zrotation Xrotation Yrotation
                        JOINT LeftWrist
                        {
                            OFFSET  28.869000   0.000037  -0.000114
                            CHANNELS 3 Zrotation Xrotation Yrotation
                            JOINT LeftFinger0
                            {
                                OFFSET   2.044650  -2.323450   3.252850
                                CHANNELS 3 Zrotation Xrotation Yrotation
                                JOINT LeftFinger01
                                {
                                    OFFSET   3.088140   0.000000   0.000000
                                    CHANNELS 3 Zrotation Xrotation Yrotation
                                    JOINT LeftFinger02
                                    {
                                        OFFSET   2.639460   0.000000   0.000000
                                        CHANNELS 3 Zrotation Xrotation Yrotation
                                        End Site
                                        {
                                            OFFSET   2.582190   0.000000   0.000000
                                        }
                                    }
                                }
                            }
                            JOINT LeftFinger1
                            {
                                OFFSET   8.364480   0.000000   3.252850
                                CHANNELS 3 Zrotation Xrotation Yrotation
                                JOINT LeftFinger11
                                {
                                    OFFSET   4.646930   0.000000   0.000000
                                    CHANNELS 3 Zrotation Xrotation Yrotation
                                    JOINT LeftFinger12
                                    {
                                        OFFSET   2.323470   0.000000   0.000000
                                        CHANNELS 3 Zrotation Xrotation Yrotation
                                        End Site
                                        {
                                            OFFSET   2.273050   0.000000   0.000000
                                        }
                                    }
                                }
                            }
                            JOINT LeftFinger2
                            {
                                OFFSET   8.364490   0.000016   1.078090
                                CHANNELS 3 Zrotation Xrotation Yrotation
                                JOINT LeftFinger21
                                {
                                    OFFSET   5.111620   0.000000   0.000000
                                    CHANNELS 3 Zrotation Xrotation Yrotation
                                    JOINT LeftFinger22
                                    {
                                        OFFSET   2.788150   0.000013   0.000000
                                        CHANNELS 3 Zrotation Xrotation Yrotation
                                        End Site
                                        {
                                            OFFSET   2.727660   0.000000   0.000000
                                        }
                                    }
                                }
                            }
                            JOINT LeftFinger3
                            {
                                OFFSET   7.899780   0.000016  -1.078090
                                CHANNELS 3 Zrotation Xrotation Yrotation
                                JOINT LeftFinger31
                                {
                                    OFFSET   4.646930   0.000000   0.000000
                                    CHANNELS 3 Zrotation Xrotation Yrotation
                                    JOINT LeftFinger32
                                    {
                                        OFFSET   2.323470   0.000000   0.000000
                                        CHANNELS 3 Zrotation Xrotation Yrotation
                                        End Site
                                        {
                                            OFFSET   2.273050   0.000000   0.000000
                                        }
                                    }
                                }
                            }
                            JOINT LeftFinger4
                            {
                                OFFSET   7.435080   0.000000  -3.252850
                                CHANNELS 3 Zrotation Xrotation Yrotation
                                JOINT LeftFinger41
                                {
                                    OFFSET   3.717550   0.000000   0.000000
                                    CHANNELS 3 Zrotation Xrotation Yrotation
                                    JOINT LeftFinger42
                                    {
                                        OFFSET   1.858760   0.000000   0.000000
                                        CHANNELS 3 Zrotation Xrotation Yrotation
                                        End Site
                                        {
                                            OFFSET   1.818440   0.000000   0.000000
                                        }
                                    }
                                }
                            }
                        }
                    }
                }
            }
            JOINT RightCollar
            {
                OFFSET  -3.911900  19.017000  -0.467064
                CHANNELS 3 Zrotation Xrotation Yrotation
                JOINT RightShoulder
                {
                    OFFSET -10.383700   0.000000   0.000000
                    CHANNELS 3 Zrotation Xrotation Yrotation
                    JOINT RightElbow
                    {
                        OFFSET -26.662100   0.001633   0.000260
                        CHANNELS 3 Zrotation Xrotation Yrotation
                        JOINT RightWrist
                        {
                            OFFSET -28.869000  -0.000045  -0.000080
                            CHANNELS 3 Zrotation Xrotation Yrotation
                            JOINT RightFinger0
                            {
                                OFFSET  -2.044660  -2.323490   3.252850
                                CHANNELS 3 Zrotation Xrotation Yrotation
                                JOINT RightFinger01
                                {
                                    OFFSET  -3.088140   0.000000   0.000000
                                    CHANNELS 3 Zrotation Xrotation Yrotation
                                    JOINT RightFinger02
                                    {
                                        OFFSET  -2.639450   0.000000   0.000000
                                        CHANNELS 3 Zrotation Xrotation Yrotation
                                        End Site
                                        {
                                            OFFSET  -2.582190   0.000000   0.000000
                                        }
                                    }
                                }
                            }
                            JOINT RightFinger1
                            {
                                OFFSET  -8.364480   0.000000   3.252850
                                CHANNELS 3 Zrotation Xrotation Yrotation
                                JOINT RightFinger11
                                {
                                    OFFSET  -4.646920   0.000000   0.000000
                                    CHANNELS 3 Zrotation Xrotation Yrotation
                                    JOINT RightFinger12
                                    {
                                        OFFSET  -2.323470   0.000000   0.000000
                                        CHANNELS 3 Zrotation Xrotation Yrotation
                                        End Site
                                        {
                                            OFFSET  -2.273050   0.000000   0.000000
                                        }
                                    }
                                }
                            }
                            JOINT RightFinger2
                            {
                                OFFSET  -8.364480   0.000000   1.078090
                                CHANNELS 3 Zrotation Xrotation Yrotation
                                JOINT RightFinger21
                                {
                                    OFFSET  -5.111610   0.000000   0.000000
                                    CHANNELS 3 Zrotation Xrotation Yrotation
                                    JOINT RightFinger22
                                    {
                                        OFFSET  -2.788160   0.000000   0.000000
                                        CHANNELS 3 Zrotation Xrotation Yrotation
                                        End Site
                                        {
                                            OFFSET  -2.727660   0.000000   0.000000
                                        }
                                    }
                                }
                            }
                            JOINT RightFinger3
                            {
                                OFFSET  -7.899780   0.000000  -1.078090
                                CHANNELS 3 Zrotation Xrotation Yrotation
                                JOINT RightFinger31
                                {
                                    OFFSET  -4.646930   0.000000   0.000000
                                    CHANNELS 3 Zrotation Xrotation Yrotation
                                    JOINT RightFinger32
                                    {
                                        OFFSET  -2.323470   0.000000   0.000000
                                        CHANNELS 3 Zrotation Xrotation Yrotation
                                        End Site
                                        {
                                            OFFSET  -2.273050   0.000000   0.000000
                                        }
                                    }
                                }
                            }
                            JOINT RightFinger4
                            {
                                OFFSET  -7.435090   0.000000  -3.252850
                                CHANNELS 3 Zrotation Xrotation Yrotation
                                JOINT RightFinger41
                                {
                                    OFFSET  -3.717550   0.000000   0.000000
                                    CHANNELS 3 Zrotation Xrotation Yrotation
                                    JOINT RightFinger42
                                    {
                                        OFFSET  -1.858760   0.000000   0.000000
                                        CHANNELS 3 Zrotation Xrotation Yrotation
                                        End Site
                                        {
                                            OFFSET  -1.818440   0.000000   0.000000
                                        }
                                    }
                                }
                            }
                        }
                    }
                }
            }
        }
    }
    JOINT LeftHip
    {
        OFFSET   9.782990   0.000000   0.000000
        CHANNELS 3 Zrotation Xrotation Yrotation
        JOINT LeftKnee
        {
            OFFSET  -0.000063 -41.789100   0.001657
            CHANNELS 3 Zrotation Xrotation Yrotation
            JOINT LeftAnkle
            {
                OFFSET   0.000078 -41.133200  -0.000113
                CHANNELS 3 Zrotation Xrotation Yrotation
                JOINT LeftToe
                {
                    OFFSET   0.000000  -6.358970  14.674500
                    CHANNELS 3 Zrotation Xrotation Yrotation
                    End Site
                    {
                        OFFSET   0.000000   0.000000   3.913200
                    }
                }
            }
        }
    }
    JOINT RightHip
    {
        OFFSET  -9.782990   0.000000   0.000000
        CHANNELS 3 Zrotation Xrotation Yrotation
        JOINT RightKnee
        {
            OFFSET   0.000053 -41.789200   0.000277
            CHANNELS 3 Zrotation Xrotation Yrotation
            JOINT RightAnkle
            {
                OFFSET   0.000030 -41.133200  -0.000150
                CHANNELS 3 Zrotation Xrotation Yrotation
                JOINT RightToe
                {
                    OFFSET   0.000000  -6.358960  14.674500
                    CHANNELS 3 Zrotation Xrotation Yrotation
                    End Site
                    {
                        OFFSET   0.000000   0.000000   3.913200
                    }
                }
            }
        }
    }
}
MOTION
Frames: 5
Frame Time:   0.016667
  0.343651  89.512800  -1.082220  -0.685599  -3.366010   0.829788   0.874146   3.114790   0.089383   1.747290   6.230550   0.131373  -0.960195  -0.601984  -0.014214  -1.581060  -1.214420   7.031190  -9.101630   3.408750  -0.227403 -70.076900  16.414400  -9.330600  -1.486390  -1.405790  -9.585860   6.368280  -8.864870   3.318960  41.756500  27.940300 -58.039000 -23.254200   0.004303   0.004162  -6.627110   0.000203   0.000258 -33.473700   2.124010  -3.208130 -27.431500  -0.005035  -0.004360 -19.202000  -0.004912   0.000457 -28.217200  -0.856334   1.572510 -33.596600   0.000090  -0.004689 -22.375400  -0.002385  -0.003549 -28.163300  -1.474690   2.753470 -33.307300  -0.001585  -0.005393 -22.179900  -0.002735  -0.004111 -31.873300  -2.384590   3.829040 -47.929400  -0.002708   0.010391 -31.921000  -0.002333   0.002940   9.047490  -0.350161   6.121600  68.340200   5.627680   0.426772   0.387445 -12.521800   6.908520  -5.984730 -12.543400   4.304180 -45.751000  25.727700  56.371100  14.397400   0.000264  -0.008709   2.198720   0.001952  -0.001111  23.291400   4.683910  10.742900  19.413200  -0.001102   0.004160  13.589200  -0.001182   0.003001  26.370300   5.259420  10.475600  26.852800  -0.000958   0.006187  17.884000  -0.000684   0.004141  26.906800   2.763800   5.427760  27.152500   0.001189  -0.002066  18.083500  -0.003057  -0.001341  27.928300   1.572870   2.956140  41.953500  -0.010018  -0.003377  27.941000  -0.003424  -0.003270   1.873010   6.546010  -2.969650   0.673899   0.200388   9.485390  -3.238880  -4.039390   5.680300   0.000000   0.000000   0.000000  -0.109811   5.512040  -1.645210   0.749441   1.325120  -7.913710  -2.258260  -3.801740   2.266430   0.000000   0.000000   0.000000
  0.347672  89.513200  -1.082190  -0.685352  -3.365980   0.833928   0.874181   3.114970   0.089298   1.747370   6.230920   0.131199  -0.960413  -0.597715  -0.014220  -1.581250  -1.207870   7.018300  -9.101640   3.408780  -0.227328 -70.079600  16.405500  -9.322430  -1.486430  -1.405790  -9.586210   6.356570  -8.858680   3.318900  41.757200  27.939600 -58.034500 -23.254200   0.004303   0.004170  -6.627110   0.000202   0.000254 -33.470200   2.120250  -3.203230 -27.431400  -0.005035  -0.004359 -19.201900  -0.004912   0.000457 -28.217000  -0.856449   1.576680 -33.600500   0.000091  -0.004688 -22.378000  -0.002384  -0.003547 -28.162700  -1.480670   2.763890 -33.309300  -0.001584  -0.005391 -22.179300  -0.002735  -0.004111 -31.875600  -2.384900   3.829040 -47.932900  -0.002707   0.010393 -31.923300  -0.002332   0.002940   9.047490  -0.350127   6.121610  68.348300   5.647080   0.431703   0.393777 -12.535000   6.899090  -5.986470 -12.543500   4.296330 -45.749600  25.726500  56.376600  14.404500   0.000264  -0.008710   2.202270   0.001949  -0.001110  23.286700   4.695940  10.771100  19.413200  -0.001102   0.004163  13.589200  -0.001186   0.003003  26.362300   5.270990  10.504200  26.847200  -0.000958   0.006191  17.880200  -0.000686   0.004145  26.901000   2.759440   5.420630  27.125200   0.001188  -0.002062  18.065400  -0.003060  -0.001340  27.919000   1.572870   2.959850  41.939500  -0.010022  -0.003377  27.931700  -0.003420  -0.003268   1.872620   6.539910  -2.969620   0.673968   0.211295   9.477750  -3.240170  -4.046260   5.677990  -0.000000   0.000000   0.000000  -0.109693   5.510570  -1.645520   0.749363   1.327680  -7.914180  -2.258180  -3.802810   2.266580  -0.000000   0.000000   0.000000
  0.354339  89.513900  -1.081960  -0.684895  -3.365910   0.841503   0.874254   3.116260   0.089157   1.747530   6.233510   0.130893  -0.960631  -0.592113  -0.014227  -1.580870  -1.198840   6.997120  -9.101650   3.408910  -0.227194 -70.083300  16.393200  -9.309070  -1.486470  -1.405780  -9.586570   6.340460  -8.849400   3.318830  41.756700  27.940100 -58.025400 -23.254200   0.004301   0.004178  -6.627110   0.000199   0.000251 -33.464800   2.114710  -3.195200 -27.431200  -0.005034  -0.004357 -19.201800  -0.004911   0.000457 -28.216700  -0.856563   1.584870 -33.608700   0.000095  -0.004686 -22.383400  -0.002382  -0.003544 -28.161700  -1.489140   2.780400 -33.312800  -0.001582  -0.005387 -22.178700  -0.002734  -0.004110 -31.880400  -2.385210   3.829040 -47.940200  -0.002705   0.010395 -31.928200  -0.002332   0.002942   9.047490  -0.350054   6.121620  68.360200   5.673280   0.436640   0.405780 -12.549500   6.882970  -5.989370 -12.543700   4.283110 -45.748500  25.727700  56.386600  14.419300   0.000262  -0.008713   2.209640   0.001946  -0.001108  23.282000   4.707970  10.799400  19.413200  -0.001106   0.004171  13.589200  -0.001193   0.003008  26.343600   5.282550  10.532700  26.830900  -0.000961   0.006202  17.869300  -0.000692   0.004154  26.890900   2.752830   5.410050  27.081700   0.001182  -0.002049  18.036400  -0.003066  -0.001334  27.899000   1.572860   2.967740  41.909600  -0.010031  -0.003377  27.911800  -0.003411  -0.003259   1.872200   6.533800  -2.969640   0.674744   0.222203   9.470100  -3.241710  -4.053160   5.672030  -0.000000   0.000000  -0.000000  -0.109576   5.509100  -1.645840   0.749344   1.330240  -7.917240  -2.257910  -3.803880   2.266800  -0.000000   0.000000  -0.000000
  0.359740  89.514300  -1.081050  -0.684432  -3.365820   0.849083   0.874339   3.119880   0.089023   1.747700   6.240750   0.130541  -0.960582  -0.590768  -0.014225  -1.579600  -1.195990   6.979860  -9.101610   3.409250  -0.227030 -70.085400  16.388700  -9.297280  -1.486540  -1.409830  -9.584630   6.336040  -8.843550   3.322990  41.752400  27.944800 -58.013100 -23.266600   0.004299   0.004178  -6.633330   0.000193   0.000251 -33.460900   2.111350  -3.187550 -27.431000  -0.005033  -0.004354 -19.201600  -0.004907   0.000456 -28.216500  -0.856257   1.596790 -33.617900   0.000102  -0.004681 -22.389400  -0.002380  -0.003543 -28.160900  -1.493110   2.794340 -33.314400  -0.001582  -0.005384 -22.182000  -0.002731  -0.004106 -31.885000  -2.383810   3.825890 -47.947000  -0.002703   0.010397 -31.932700  -0.002331   0.002947   9.047550  -0.349934   6.119040  68.366700   5.680430   0.431072   0.420258 -12.551100   6.870050  -5.981350 -12.537000   4.274400 -45.750900  25.735900  56.397700  14.438200   0.000254  -0.008727   2.219110   0.001948  -0.001104  23.260500   4.697550  10.786900  19.394300  -0.001114   0.004180  13.576000  -0.001201   0.003016  26.316300   5.271380  10.520800  26.802000  -0.000973   0.006218  17.850100  -0.000701   0.004165  26.883100   2.748800   5.403380  27.051300   0.001170  -0.002026  18.016200  -0.003076  -0.001316  27.872300   1.575850   2.978220  41.869900  -0.010042  -0.003371  27.885300  -0.003397  -0.003241   1.872210   6.535150  -2.969880   0.675983   0.220474   9.471020  -3.241240  -4.052310   5.661880   0.000000   0.000000  -0.000000  -0.110390   5.511380  -1.643690   0.749462   1.329300  -7.924930  -2.256490  -3.803290   2.266910  -0.000000   0.000000  -0.000000
  0.364818  89.514500  -1.079820  -0.683930  -3.365730   0.857255   0.874444   3.124840   0.088944   1.747930   6.250660   0.130322  -0.960240  -0.590335  -0.014223  -1.576560  -1.194710   6.964790  -9.101520   3.409520  -0.226926 -70.085600  16.387500  -9.288980  -1.487040  -1.419440  -9.579680   6.334860  -8.840110   3.330090  41.747400  27.950700 -58.001700 -23.287500   0.004297   0.004177  -6.643760   0.000187   0.000252 -33.458800   2.109770  -3.183050 -27.430800  -0.005030  -0.004349 -19.201500  -0.004900   0.000456 -28.216800  -0.855565   1.604690 -33.630600   0.000111  -0.004675 -22.397900  -0.002378  -0.003542 -28.160400  -1.494580   2.802190 -33.319400  -0.001583  -0.005379 -22.190700  -0.002728  -0.004101 -31.894200  -2.379160   3.816400 -47.960200  -0.002701   0.010399 -31.941500  -0.002329   0.002954   9.047660  -0.349855   6.113960  68.371400   5.682330   0.421677   0.435297 -12.551600   6.855510  -5.968470 -12.524100   4.260900 -45.754100  25.746900  56.407900  14.458400   0.000243  -0.008751   2.229240   0.001950  -0.001100  23.224100   4.679530  10.764800  19.362400  -0.001125   0.004192  13.553700  -0.001213   0.003026  26.284600   5.252070  10.499800  26.767500  -0.000989   0.006240  17.827200  -0.000715   0.004180  26.872900   2.745760   5.400160  27.022500   0.001154  -0.001996  17.997000  -0.003089  -0.001290  27.843000   1.580720   2.989690  41.826400  -0.010057  -0.003361  27.856400  -0.003379  -0.003219   1.872390   6.538960  -2.970250   0.677188   0.214719   9.472530  -3.240090  -4.049180   5.651200  -0.000000   0.000000   0.000000  -0.112533   5.515990  -1.639480   0.749830   1.327060  -7.934330  -2.254440  -3.802700   2.266950  -0.000000   0.000000  -0.000000
